HIERARCHY
ROOT Hips
{
 OFFSET 0.000000 0.000000 0.000000
 CHANNELS 6 Xposition Yposition Zposition Yrotation Xrotation Zrotation
 JOINT Chest
 {
  OFFSET 0.000000 9.585900 0.002600
  CHANNELS 3 Yrotation Xrotation Zrotation
  JOINT Chest2
  {
   OFFSET 0.000000 9.601200 -0.005300
   CHANNELS 3 Yrotation Xrotation Zrotation
   JOINT Chest3
   {
    OFFSET 0.000000 9.561800 0.000000
    CHANNELS 3 Yrotation Xrotation Zrotation
    JOINT Chest4
    {
     OFFSET 0.000000 9.552100 0.000000
     CHANNELS 3 Yrotation Xrotation Zrotation
     JOINT Neck
     {
      OFFSET 0.000000 14.453000 0.000000
      CHANNELS 3 Yrotation Xrotation Zrotation
      JOINT Head
      {
       OFFSET 0.000000 8.936500 -0.011300
       CHANNELS 3 Yrotation Xrotation Zrotation
       End Site
       {
        OFFSET 0.000000 17.073600 -0.006000
       }
      }
     }
     JOINT RightCollar
     {
      OFFSET -2.921100 9.558500 0.000000
      CHANNELS 3 Yrotation Xrotation Zrotation
      JOINT RightShoulder
      {
       OFFSET -13.519700 0.000000 0.000000
       CHANNELS 3 Yrotation Xrotation Zrotation
       JOINT RightElbow
       {
        OFFSET 0.000000 -29.696600 0.000000
        CHANNELS 3 Yrotation Xrotation Zrotation
        JOINT RightWrist
        {
         OFFSET 0.000000 -24.004700 0.000000
         CHANNELS 3 Yrotation Xrotation Zrotation
         End Site
         {
          OFFSET 0.000000 -17.728500 0.000000
         }
        }
       }
      }
     }
     JOINT LeftCollar
     {
      OFFSET 2.921100 9.558500 0.000000
      CHANNELS 3 Yrotation Xrotation Zrotation
      JOINT LeftShoulder
      {
       OFFSET 13.519700 0.000000 0.000000
       CHANNELS 3 Yrotation Xrotation Zrotation
       JOINT LeftElbow
       {
        OFFSET 0.000000 -29.696600 0.000000
        CHANNELS 3 Yrotation Xrotation Zrotation
        JOINT LeftWrist
        {
         OFFSET 0.000000 -24.004700 0.000000
         CHANNELS 3 Yrotation Xrotation Zrotation
         End Site
         {
          OFFSET 0.000000 -17.728500 0.000000
         }
        }
       }
      }
     }
    }
   }
  }
 }
 JOINT RightHip
 {
  OFFSET -7.771700 -0.012900 -0.001300
  CHANNELS 3 Yrotation Xrotation Zrotation
  JOINT RightKnee
  {
   OFFSET 0.000000 -40.869800 0.001200
   CHANNELS 3 Yrotation Xrotation Zrotation
   JOINT RightAnkle
   {
    OFFSET 0.000000 -39.717900 0.002100
    CHANNELS 3 Yrotation Xrotation Zrotation
    JOINT RightToe
    {
     OFFSET 0.000000 -4.965400 11.033500
     CHANNELS 3 Yrotation Xrotation Zrotation
     End Site
     {
      OFFSET 0.000000 -1.423100 5.872300
     }
    }
   }
  }
 }
 JOINT LeftHip
 {
  OFFSET 7.771700 -0.012900 -0.001300
  CHANNELS 3 Yrotation Xrotation Zrotation
  JOINT LeftKnee
  {
   OFFSET 0.000000 -40.869800 0.001200
   CHANNELS 3 Yrotation Xrotation Zrotation
   JOINT LeftAnkle
   {
    OFFSET 0.000000 -39.717900 0.002100
    CHANNELS 3 Yrotation Xrotation Zrotation
    JOINT LeftToe
    {
     OFFSET 0.000000 -4.965400 11.033500
     CHANNELS 3 Yrotation Xrotation Zrotation
     End Site
     {
      OFFSET 0.000000 -1.423100 5.872300
     }
    }
   }
  }
 }
}
MOTION
Frames: 12
Frame Time: 0.008333
0.000000 85.388000 0.000000 0.000000 -5.767877 0.000000 0.000000 11.653817 0.000000 0.000000 -5.885947 0.000000 0.000000 -0.000000 0.000000 0.000000 -0.000000 0.000000 0.000000 12.528835 0.000000 0.000000 0.711642 0.000000 0.000000 -0.000000 0.000000 0.000000 0.000000 -90.000000 0.000000 -2.309062 0.000000 0.000000 2.309062 0.000000 0.000000 -0.000000 0.000000 0.000000 -0.000000 90.000000 0.000000 -2.309062 0.000000 0.000000 2.309062 0.000000 0.000000 8.520406 0.000000 0.000000 1.905762 0.000000 -0.000000 -4.658285 0.000000 0.000000 -0.000000 0.000000 0.000000 8.520406 0.000000 0.000000 1.905762 0.000000 -0.000000 -4.658285 0.000000 0.000000 -0.000000 0.000000
-235.694826 57.739572 22.244437 173.879330 -50.854977 -3.490087 4.455558 22.238103 3.697787 2.317961 12.726200 1.841850 2.984311 15.889360 2.397395 2.320361 12.736819 1.849121 -0.078635 17.655290 2.998978 -1.142517 -2.950988 5.553027 1.030326 4.493032 1.047068 -5.675890 -18.958692 -10.077726 -88.849907 -51.231529 138.270864 1.507449 -0.054668 -26.901196 -10.045302 1.752227 -0.373707 6.446585 -11.081068 12.003365 71.414977 -56.261029 -121.448994 -6.280374 4.087922 -7.145181 6.989028 -20.979823 0.582409 -43.165759 71.311448 -46.623366 4.364706 -12.845343 13.274356 0.002331 -0.004255 -0.005563 -9.698346 -18.519568 9.555706 55.336628 81.553448 57.631040 0.371168 -18.117349 -22.880885 -0.002473 -0.001714 -0.003974
-235.693950 57.740417 22.242331 173.883092 -50.871294 -3.502049 4.460334 22.191795 3.675117 2.322065 12.768079 1.870223 2.988285 15.860518 2.377266 2.325332 12.729033 1.845747 0.002821 17.716451 3.077975 -1.015922 -2.838519 5.669645 1.031310 4.411433 1.078025 -6.386927 -19.459177 -9.663572 -91.689007 -51.099900 140.496739 1.655761 -0.508401 -27.127166 -10.108462 1.730509 -0.397487 6.339093 -11.080480 12.092158 71.648223 -56.239371 -121.656179 -6.293366 4.005627 -7.209851 6.988638 -20.961099 0.589965 -43.152128 71.314760 -46.599520 4.361408 -12.848493 13.271808 -0.000501 -0.001688 -0.007168 -9.684269 -18.504366 9.556425 55.326856 81.556930 57.638743 0.372804 -18.122639 -22.885183 -0.001360 -0.000291 -0.000209
-235.693011 57.741255 22.239818 173.879732 -50.890773 -3.507485 4.469618 22.179467 3.665148 2.326600 12.758094 1.870082 2.993110 15.853340 2.364830 2.331525 12.746550 1.867053 0.088574 17.755434 3.140115 -0.868589 -2.720579 5.802334 1.034783 4.305089 1.079570 -7.143410 -20.002162 -9.205368 -94.548174 -50.916142 142.725377 1.811921 -1.025756 -27.415702 -10.177773 1.668381 -0.446897 6.223519 -11.072274 12.204659 71.864765 -56.244648 -121.822414 -6.321771 3.924687 -7.280444 6.994950 -20.939936 0.596143 -43.144664 71.316996 -46.582795 4.361178 -12.851153 13.270378 0.002533 -0.000354 -0.004812 -9.663626 -18.485856 9.557077 55.297708 81.561485 57.627234 0.369123 -18.125907 -22.884442 0.002897 -0.002592 0.000846
-235.692039 57.741645 22.237301 173.880017 -50.909534 -3.513801 4.477535 22.166010 3.651731 2.329349 12.751801 1.866077 2.998877 15.842540 2.350554 2.335678 12.726129 1.847274 0.199466 17.838480 3.253731 -0.701473 -2.591490 5.951202 1.044344 4.303575 1.137056 -7.944398 -20.652915 -8.709624 -97.388316 -50.665258 144.935323 1.976400 -1.611754 -27.760329 -10.247985 1.640594 -0.466520 6.102678 -11.055314 12.336578 72.061604 -56.265802 -121.948253 -6.374748 3.832911 -7.366421 7.001397 -20.919412 0.599090 -43.156250 71.319407 -46.584185 4.365883 -12.857203 13.273178 -0.000099 -0.000049 -0.008859 -9.645849 -18.468797 9.558289 55.271950 81.569990 57.614872 0.368035 -18.129435 -22.878566 0.000918 -0.004466 -0.001050
-235.690688 57.741469 22.234940 173.883657 -50.927039 -3.522170 4.481463 22.147616 3.635176 2.337201 12.749026 1.860284 2.999444 15.827694 2.335022 2.339070 12.705603 1.822701 0.322686 17.932541 3.379761 -0.516907 -2.442105 6.113489 1.067542 4.218614 1.170386 -8.801306 -21.244164 -8.154835 -100.169549 -50.347199 147.093095 2.162344 -2.266450 -28.142938 -10.314282 1.613267 -0.483480 5.974607 -11.035011 12.478833 72.233203 -56.296780 -122.031081 -6.453277 3.726809 -7.459931 7.002335 -20.901301 0.603475 -43.158254 71.320639 -46.578706 4.364043 -12.861221 13.275596 -0.001760 0.002727 -0.011026 -9.635781 -18.453328 9.559765 55.283662 81.582409 57.639989 0.372220 -18.138041 -22.879735 -0.000203 -0.004937 -0.001082
-235.688617 57.741637 22.232149 173.883578 -50.949997 -3.528386 4.486575 22.130090 3.618549 2.343178 12.745683 1.851309 3.004319 15.841385 2.348223 2.334354 12.670289 1.780707 0.449555 18.027448 3.498577 -0.318210 -2.267997 6.287920 1.093891 4.130618 1.188093 -9.668472 -21.862639 -7.568356 -102.886146 -49.979436 149.181114 2.362013 -2.986967 -28.546036 -10.375642 1.578928 -0.508719 5.841375 -11.018058 12.619768 72.367110 -56.332354 -122.069741 -6.554126 3.616790 -7.559121 7.002620 -20.878576 0.610734 -43.158286 71.325035 -46.573761 4.365296 -12.865151 13.276112 -0.006234 0.002250 -0.013261 -9.631323 -18.430694 9.562062 55.325557 81.587649 57.686260 0.378181 -18.142227 -22.880436 -0.006739 -0.006189 -0.003121
-235.686582 57.744315 22.227043 173.881481 -50.995206 -3.528076 4.492958 22.131153 3.598542 2.346177 12.689223 1.798865 3.016971 15.862968 2.361921 2.342130 12.675295 1.783287 0.582218 18.134956 3.624904 -0.110714 -2.070658 6.473996 1.120346 4.082027 1.217324 -10.498691 -22.524299 -6.973982 -105.548719 -49.561570 151.191488 2.565555 -3.767868 -28.945910 -10.431584 1.555218 -0.526922 5.707687 -11.007858 12.752730 72.450085 -56.364426 -122.069253 -6.671893 3.517342 -7.655650 7.004601 -20.833325 0.617245 -43.158869 71.333163 -46.571394 4.362313 -12.869649 13.275949 -0.002556 -0.000103 -0.013553 -9.609754 -18.386702 9.557574 55.307099 81.593047 57.678256 0.369137 -18.142318 -22.875267 -0.004415 -0.011750 -0.003169
-235.684652 57.742181 22.225687 173.882034 -51.005347 -3.528596 4.493756 22.106597 3.579828 2.348309 12.669444 1.778897 3.018800 15.836727 2.331169 2.349048 12.679699 1.786342 0.717252 18.252721 3.756293 0.100141 -1.854354 6.668555 1.154894 4.043293 1.246057 -11.284466 -23.182484 -6.376808 -108.127946 -49.085795 153.100812 2.782191 -4.606233 -29.319571 -10.480901 1.546620 -0.539535 5.576436 -11.008929 12.877324 72.473535 -56.388819 -122.030216 -6.795652 3.434868 -7.741129 7.004272 -20.823631 0.616123 -43.153030 71.342557 -46.563931 4.359139 -12.876263 13.275445 -0.000672 0.001059 -0.010894 -9.582849 -18.379703 9.558817 55.251855 81.600863 57.644310 0.364916 -18.144644 -22.873351 -0.005178 -0.011134 -0.001268
-235.681969 57.742195 22.222547 173.880111 -51.033770 -3.527919 4.497845 22.122791 3.576151 2.348216 12.627245 1.744596 3.020690 15.822932 2.315879 2.350863 12.668646 1.774172 0.852927 18.377405 3.890008 0.311932 -1.625397 6.867290 1.200274 4.009299 1.276629 -12.038466 -23.832644 -5.783899 -110.569318 -48.560312 154.885462 3.020848 -5.497844 -29.656225 -10.521755 1.554020 -0.549664 5.452032 -11.022642 12.994191 72.430655 -56.406109 -121.947520 -6.912690 3.370346 -7.820999 7.006639 -20.800261 0.620148 -43.163137 71.348977 -46.573079 4.364062 -12.875573 13.277589 -0.003668 -0.003332 -0.013522 -9.573534 -18.351105 9.555077 55.250870 81.602346 57.647337 0.365128 -18.144312 -22.872352 -0.002844 -0.013091 -0.002257
-235.678637 57.743903 22.218074 173.891769 -51.075259 -3.538588 4.496000 22.121935 3.554303 2.350583 12.641763 1.753801 3.014508 15.782447 2.279243 2.351254 12.656643 1.762291 0.989159 18.505452 4.024375 0.524928 -1.390429 7.067144 1.255931 3.972597 1.312186 -12.756501 -24.471428 -5.210336 -112.842940 -47.996748 156.528635 3.279963 -6.435309 -29.939874 -10.553585 1.571595 -0.562301 5.341060 -11.045893 13.105161 72.311754 -56.413653 -121.815652 -7.020542 3.325915 -7.893487 6.995986 -20.760292 0.628891 -43.161898 71.356381 -46.573508 4.351548 -12.872999 13.279193 -0.006138 -0.007624 -0.013739 -9.572664 -18.307789 9.549892 55.254836 81.604163 57.656562 0.363928 -18.144053 -22.873304 -0.002628 -0.016340 -0.003219
-235.675309 57.742910 22.215779 173.894295 -51.096532 -3.541644 4.498978 22.099870 3.531633 2.351189 12.656414 1.762294 3.007169 15.744337 2.244643 2.351432 12.644871 1.750535 1.124242 18.633295 4.158468 0.736016 -1.155796 7.267063 1.317825 3.928203 1.355529 -13.405429 -25.091531 -4.676797 -114.944323 -47.403851 158.014539 3.555536 -7.413259 -30.144838 -10.580045 1.592674 -0.578151 5.244836 -11.076502 13.211459 72.112033 -56.407922 -121.629092 -7.121349 3.301062 -7.951029 6.988352 -20.742019 0.637855 -43.163357 71.358918 -46.580603 4.346352 -12.868405 13.281004 -0.012409 -0.009417 -0.011454 -9.568335 -18.283379 9.551662 55.240385 81.604400 57.644241 0.357354 -18.145697 -22.871187 -0.003368 -0.016051 -0.004237
